<?xml version="1.0" encoding="UTF-8" standalone="no"?>
<svg width="26px" height="26px" viewBox="0 0 26 26" version="1.1" xmlns="http://www.w3.org/2000/svg" xmlns:xlink="http://www.w3.org/1999/xlink">        <title>13250E7F-B011-467D-BE4A-A780116B1080</title>    <desc>Created with sketchtool.</desc>    <defs/>    <g id="PLATFORM" stroke="none" stroke-width="1" fill="none" fill-rule="evenodd">        <g id="Games" transform="translate(-644.000000, -184.000000)" fill="#BECCCE">            <g id="Group-18" transform="translate(230.000000, 162.000000)">                <g id="Group-16">                    <g id="Group-3">                        <g id="Group-22" transform="translate(414.000000, 20.000000)">                            <g id="Group-2">                                <path d="M17.5273932,21.7421089 L23.3266016,27.5413174 C23.9381785,28.1528942 24.9297405,28.1528942 25.5413174,27.5413174 C26.1528942,26.9297405 26.1528942,25.9381785 25.5413174,25.3266016 L19.7421089,19.5273932 C21.112726,17.6973487 21.924567,15.4246239 21.924567,12.9622835 C21.924567,6.90798149 17.0165855,2 10.9622835,2 C4.90798149,2 0,6.90798149 0,12.9622835 C0,19.0165855 4.90798149,23.924567 10.9622835,23.924567 C13.4246239,23.924567 15.6973487,23.112726 17.5273932,21.7421089 Z M10.9622835,20.792486 C6.63778206,20.792486 3.13208099,17.2867849 3.13208099,12.9622835 C3.13208099,8.63778206 6.63778206,5.13208099 10.9622835,5.13208099 C15.2867849,5.13208099 18.792486,8.63778206 18.792486,12.9622835 C18.792486,17.2867849 15.2867849,20.792486 10.9622835,20.792486 Z" id="search-icn"/>                            </g>                        </g>                    </g>                </g>            </g>        </g>    </g></svg>