<?xml version="1.0" encoding="UTF-8"?>
<!-- Generator: Adobe Illustrator 19.0.0, SVG Export Plug-In . SVG Version: 6.00 Build 0)  -->
<svg version="1.1" id="Layer_1" xmlns="http://www.w3.org/2000/svg" xmlns:xlink="http://www.w3.org/1999/xlink" x="0px" y="0px" viewBox="-548.1 824.1 21.9 15.6" style="enable-background:new -548.1 824.1 21.9 15.6;" xml:space="preserve">
<style type="text/css">
	.st0{fill:#FFFFFF;}
</style>
<g>
	<path class="st0" d="M-540.9,829.2V828c0-0.4-0.3-0.8-0.8-0.8c-0.4,0-0.8,0.3-0.8,0.8c0,0,0,0,0,0.1v1.2h-1.2   c-0.4,0-0.8,0.4-0.8,0.8c0,0.4,0.3,0.7,0.8,0.8h1.2v1.2c0,0.4,0.3,0.8,0.8,0.8c0.4,0,0.8-0.3,0.8-0.8c0,0,0,0,0-0.1v-1.2h1.2   c0.4,0,0.8-0.3,0.8-0.8c0-0.4-0.3-0.8-0.8-0.8c0,0,0,0-0.1,0H-540.9L-540.9,829.2z M-537,835.6c-3,0-4,0.4-5,1.8   c-1.3,1.9-2,2.3-3.6,2.3c-1.5,0-2.5-1.3-2.5-4c0-3,0.8-6.5,2.2-9.1c1-1.8,2.1-2.5,3.6-2.5c0.7,0,1.6,0.3,2.1,0.7   c1,0.7,1.7,0.9,3,0.9s2.1-0.2,3.1-0.9c0.5-0.4,1.3-0.7,2.1-0.7c1.8,0,2.5,0.5,3.6,2.5c1.4,2.6,2.2,6.1,2.2,9.1c0,2.6-0.9,4-2.5,4   c-1.5,0-2.2-0.5-3.6-2.3C-533.1,836-534,835.6-537,835.6z M-532.5,829.1c0.5,0,1-0.4,1-1l0,0c0-0.5-0.4-1-1-1l0,0c-0.5,0-1,0.4-1,1   l0,0C-533.5,828.6-533,829.1-532.5,829.1z M-532.5,833c0.5,0,1-0.4,1-1l0,0c0-0.5-0.4-1-1-1l0,0c-0.5,0-1,0.4-1,1l0,0   C-533.5,832.5-533,833-532.5,833z M-534.4,831c0.5,0,1-0.4,1-1l0,0c0-0.5-0.4-1-1-1l0,0c-0.5,0-1,0.4-1,1l0,0   C-535.4,830.6-535,831-534.4,831z M-530.5,831c0.5,0,1-0.4,1-1l0,0c0-0.5-0.4-1-1-1l0,0c-0.5,0-1,0.4-1,1l0,0   C-531.5,830.6-531.1,831-530.5,831z"/>
</g>
</svg>