<?xml version="1.0" encoding="UTF-8"?>
<!-- Generator: Adobe Illustrator 16.0.0, SVG Export Plug-In . SVG Version: 6.00 Build 0)  -->
<!DOCTYPE svg PUBLIC "-//W3C//DTD SVG 1.1//EN" "http://www.w3.org/Graphics/SVG/1.1/DTD/svg11.dtd">
<svg version="1.1" id="Layer_1" xmlns="http://www.w3.org/2000/svg" xmlns:xlink="http://www.w3.org/1999/xlink" x="0px" y="0px" width="14px" height="18px" viewBox="0 0 14 18" enable-background="new 0 0 14 18" xml:space="preserve">
<title>80104D9F-9A56-439C-BA9E-039B7B823796</title>
<desc>Created with sketchtool.</desc>
<g id="Web-detail-hry">
	<g id="Web-detail-hry---ingame" transform="translate(-307.000000, -697.000000)">
		<g id="Group-2" transform="translate(290.000000, 190.000000)">
			<g id="Pause-button" transform="translate(4.000000, 496.000000)">
				<path id="ingame-pausebtn" fill="#929FA0" d="M13,12.995C13,11.893,13.888,11,15,11c1.104,0,2,0.893,2,1.995v14.01      C17,28.107,16.112,29,15,29c-1.104,0-2-0.893-2-1.995V12.995z M23,12.995C23,11.893,23.888,11,25,11c1.104,0,2,0.893,2,1.995      v14.01C27,28.107,26.112,29,25,29c-1.104,0-2-0.893-2-1.995V12.995z"/>
			</g>
		</g>
	</g>
</g>
</svg>