<?xml version="1.0" encoding="UTF-8"?>
<!-- Generator: Adobe Illustrator 19.0.0, SVG Export Plug-In . SVG Version: 6.00 Build 0)  -->
<svg version="1.1" id="Layer_1" xmlns="http://www.w3.org/2000/svg" xmlns:xlink="http://www.w3.org/1999/xlink" x="0px" y="0px" viewBox="0 0 70 70" style="enable-background:new 0 0 70 70;" xml:space="preserve">
<style type="text/css">
	.st0{clip-path:url(#SVGID_2_);}
	.st1{clip-path:url(#SVGID_4_);fill:#292E3D;}
</style>
<g>
	<defs>
		<path id="SVGID_1_" d="M48.9,9.5C34.7,2.2,17.1,7.2,9.1,21.2c-8.3,14.4-3.4,32.7,11,41c14.4,8.3,32.7,3.4,41-11    c1.2-2.2,0.5-4.9-1.7-6.2c-2.2-1.2-4.9-0.5-6.2,1.7c-5.8,10-18.6,13.5-28.7,7.7s-13.5-18.6-7.7-28.7c5.6-9.6,17.6-13.2,27.5-8.3    l-4,6.9c-1.1,1.9-0.2,3.2,2,2.9l18.8-2.8c2.2-0.3,3.3-2.3,2.5-4.4L56.6,2.6c-0.8-2.1-2.4-2.2-3.5-0.3L48.9,9.5z"/>
	</defs>
	<clipPath id="SVGID_2_">
		<use xlink:href="#SVGID_1_" style="overflow:visible;"/>
	</clipPath>
	<g class="st0">
		<defs>
			<rect id="SVGID_3_" x="-35.6" y="-34.6" width="142.2" height="142.2"/>
		</defs>
		<clipPath id="SVGID_4_">
			<use xlink:href="#SVGID_3_" style="overflow:visible;"/>
		</clipPath>
		<rect x="-5.1" y="-9.2" class="st1" width="79.2" height="85.6"/>
	</g>
</g>
</svg>