<?xml version="1.0" encoding="UTF-8"?>
<!-- Generator: Adobe Illustrator 16.0.0, SVG Export Plug-In . SVG Version: 6.00 Build 0)  -->
<!DOCTYPE svg PUBLIC "-//W3C//DTD SVG 1.1//EN" "http://www.w3.org/Graphics/SVG/1.1/DTD/svg11.dtd">
<svg version="1.1" id="Layer_1" xmlns="http://www.w3.org/2000/svg" xmlns:xlink="http://www.w3.org/1999/xlink" x="0px" y="0px" width="32.423px" height="22.975px" viewBox="18.5 23.013 32.423 22.975" enable-background="new 18.5 23.013 32.423 22.975" xml:space="preserve">
<path fill="#292E3D" d="M37,44.227c0,0.973,0.787,1.761,1.76,1.761c0.432,0,0.848-0.159,1.17-0.445l10.049-8.938  c1.162-1.033,1.266-2.813,0.232-3.975c-0.073-0.082-0.15-0.16-0.232-0.232L39.93,23.458c-0.726-0.646-1.838-0.582-2.484,0.145  C37.158,23.925,37,24.342,37,24.773v4.81C25.512,30.4,22.061,34.867,18.557,43.287c-0.286,0.977,0.548,1.496,1.5,0.75  c4.632-4.891,10.87-5.692,16.943-4.543V44.227z"/>
</svg>